<?xml version="1.0" standalone="no"?>
<!DOCTYPE svg PUBLIC "-//W3C//DTD SVG 20010904//EN"
 "http://www.w3.org/TR/2001/REC-SVG-20010904/DTD/svg10.dtd">
<svg version="1.0" xmlns="http://www.w3.org/2000/svg"
 width="400.000000pt" height="400.000000pt" viewBox="0 0 400.000000 400.000000"
 preserveAspectRatio="xMidYMid meet">
<metadata>
Created by potrace 1.11, written by Peter Selinger 2001-2013
</metadata>
<g transform="translate(0.000000,400.000000) scale(0.100000,-0.100000)"
fill="#000000" stroke="none">
<path d="M0 3730 c0 -167 4 -270 10 -270 5 0 14 -9 20 -21 10 -17 8 -21 -9
-26 l-21 -5 0 -990 c0 -767 3 -989 12 -986 7 3 43 81 81 174 37 93 92 228 122
299 48 118 102 250 247 605 28 69 73 179 100 245 27 66 53 129 58 140 28 59
29 73 9 98 -10 14 -19 30 -19 36 0 6 -7 11 -15 11 -9 0 -21 11 -27 25 -6 14
-31 34 -55 46 -23 11 -43 25 -43 29 0 5 -13 11 -30 15 -16 4 -32 11 -36 16 -3
5 -20 16 -37 24 -18 8 -50 26 -72 40 -22 13 -51 29 -65 35 -14 6 -32 17 -40
25 -8 7 -25 16 -38 20 -42 12 -102 58 -102 77 0 15 5 18 23 13 12 -4 33 -14
47 -23 27 -18 68 -41 115 -66 17 -9 48 -27 70 -40 22 -14 57 -32 78 -41 20
-10 37 -21 37 -25 0 -4 11 -11 25 -14 36 -9 96 -52 116 -84 44 -68 51 -72 95
-61 57 15 134 -8 152 -44 27 -55 -11 -104 -73 -94 -33 5 -33 5 -63 -71 -17
-42 -77 -189 -132 -327 -219 -540 -474 -1173 -493 -1222 -11 -29 -26 -53 -33
-53 -12 0 -14 -58 -14 -325 0 -305 1 -325 18 -325 66 0 199 25 262 49 41 16
87 32 101 35 20 4 28 13 31 36 3 21 0 30 -9 30 -8 0 -19 14 -24 30 -6 17 -17
30 -24 30 -17 0 -25 23 -14 41 15 25 10 36 -15 32 -18 -4 -26 0 -31 16 -3 11
-15 23 -26 26 -10 4 -19 10 -19 16 0 5 -15 15 -34 23 -18 8 -37 19 -40 25 -4
6 -18 11 -32 11 -32 0 -66 18 -59 31 9 14 82 11 97 -5 8 -7 28 -20 44 -29 17
-9 36 -23 43 -31 21 -25 49 -19 66 14 13 25 22 30 50 30 40 0 43 -9 20 -63
-20 -47 -20 -117 -1 -117 39 0 44 10 39 74 l-6 63 89 6 c49 3 109 12 134 20
46 16 251 45 269 39 6 -2 11 -23 11 -47 0 -32 5 -48 19 -57 11 -8 21 -28 23
-48 2 -23 8 -35 18 -35 23 0 24 45 1 76 -21 28 -29 79 -13 79 5 0 17 -9 27
-20 10 -11 25 -20 33 -20 9 0 23 -6 31 -14 27 -23 115 -66 136 -66 11 0 29 -6
40 -14 11 -7 36 -17 55 -21 19 -4 48 -13 65 -20 63 -27 162 -54 225 -60 36 -4
88 -13 115 -20 61 -17 216 -32 395 -40 74 -3 149 -8 167 -11 24 -3 38 1 59 21
33 31 56 37 109 30 22 -3 89 -8 149 -12 97 -5 111 -3 135 14 14 11 46 22 70
26 91 12 75 54 -19 49 -47 -3 -59 -7 -63 -23 -5 -17 -15 -19 -109 -19 -57 0
-131 -5 -163 -11 -62 -11 -82 -2 -66 30 5 9 7 21 5 26 -3 6 31 9 92 7 110 -5
164 3 164 23 0 10 26 14 114 17 87 2 118 7 132 19 11 10 45 19 82 22 53 4 62
3 62 -11 0 -22 -14 -44 -26 -41 -5 1 -20 0 -34 -4 -14 -3 -42 -9 -62 -12 -52
-8 -47 -19 9 -23 31 -2 52 3 63 13 11 10 32 15 53 13 23 -1 43 4 55 15 11 10
26 15 35 11 11 -4 20 2 28 20 7 14 20 28 30 31 10 4 52 43 94 87 54 59 75 89
75 108 0 14 6 34 13 43 11 16 23 17 127 7 63 -6 133 -15 155 -21 22 -5 74 -14
115 -19 41 -5 90 -12 107 -16 46 -9 57 21 20 48 -28 20 -35 42 -17 53 20 12
49 -6 55 -35 4 -17 10 -30 15 -30 4 0 11 -12 15 -27 7 -31 23 -53 36 -53 5 0
9 633 9 1470 l0 1470 -201 0 -201 0 6 -35 c5 -27 2 -44 -14 -70 -25 -41 -55
-45 -89 -14 -20 19 -22 28 -17 70 l7 49 -1110 0 -1110 0 -4 -22 -4 -23 -2 23
-1 22 -630 0 -630 0 0 -270z m1278 125 c-2 -14 -7 -26 -13 -26 -5 0 -11 12
-13 26 -2 18 1 25 13 25 12 0 15 -7 13 -25z m4 -137 c-2 -48 -2 -80 1 -208 2
-113 2 -115 26 -118 14 -2 28 3 33 11 4 9 21 18 37 22 16 3 35 13 42 21 6 8
28 14 49 14 24 0 43 7 55 20 12 13 31 20 56 20 27 0 41 5 48 19 7 12 25 20 57
24 26 2 49 9 53 14 3 6 22 13 42 17 47 8 519 9 542 0 9 -3 17 -12 17 -20 0
-11 19 -14 85 -14 74 0 86 -3 97 -20 11 -16 24 -20 73 -20 48 0 64 -4 78 -20
9 -11 26 -20 38 -20 12 0 23 -8 26 -19 3 -14 15 -21 36 -23 21 -2 33 -9 35
-20 5 -26 -43 -24 -65 2 -10 11 -27 20 -39 20 -12 0 -27 6 -33 14 -7 8 -43 20
-81 26 -38 6 -74 17 -80 25 -8 9 -38 12 -111 10 -87 -3 -98 -1 -88 12 21 24
-2 29 -118 25 -59 -2 -127 -3 -150 -3 -47 1 -52 -4 -25 -26 16 -13 15 -14 -6
-10 -16 4 -30 -3 -46 -20 -14 -15 -30 -23 -39 -20 -8 3 -25 -5 -38 -19 -13
-14 -30 -24 -39 -23 -30 3 -40 -1 -40 -15 0 -8 -16 -20 -35 -26 -19 -6 -38
-17 -42 -23 -5 -7 -20 -18 -35 -24 -16 -7 -28 -17 -28 -23 0 -19 -31 -10 -40
13 -9 19 -10 19 -8 2 2 -11 -1 -26 -5 -32 -12 -19 1 -33 28 -33 14 0 29 9 35
20 6 12 21 20 35 20 14 0 29 8 35 20 7 14 21 20 45 20 22 0 39 7 47 19 10 14
30 19 89 23 48 3 85 11 100 21 35 25 169 23 244 -3 32 -11 70 -20 85 -20 15 0
35 -9 45 -20 11 -12 31 -20 50 -20 18 0 46 -11 65 -25 19 -14 39 -25 46 -25 6
0 14 -7 18 -15 3 -8 12 -15 21 -15 19 0 135 -117 135 -136 0 -8 7 -17 16 -21
8 -3 20 -16 25 -29 4 -13 15 -24 24 -24 8 0 15 -6 15 -14 0 -11 16 -15 73 -14
39 0 130 -3 202 -5 108 -5 133 -3 147 10 15 13 18 13 30 -6 15 -25 36 -26 82
-5 33 16 35 16 66 -6 25 -18 31 -28 28 -54 -2 -24 -10 -34 -36 -45 -21 -10
-31 -20 -27 -29 3 -7 5 -22 5 -32 0 -10 9 -20 20 -23 16 -4 20 -14 20 -49 0
-25 -3 -48 -7 -51 -13 -13 -33 16 -33 48 0 41 -28 92 -54 99 -24 6 -56 -10
-56 -29 0 -11 -12 -15 -40 -15 -27 0 -43 -5 -46 -15 -4 -8 -16 -15 -29 -15
-12 0 -28 -7 -35 -15 -10 -12 -5 -21 27 -54 22 -21 50 -42 61 -45 12 -4 22
-10 23 -14 0 -4 2 -17 3 -30 2 -12 10 -28 20 -35 9 -6 31 -41 49 -77 27 -54
36 -65 55 -63 19 3 23 -1 20 -20 -2 -18 1 -21 19 -19 19 3 23 -1 20 -20 -2
-18 2 -22 20 -20 25 3 38 -26 29 -63 -5 -19 -2 -22 12 -18 15 3 18 -3 19 -38
1 -23 -2 -50 -8 -61 -6 -12 -6 -18 1 -18 5 0 9 -3 8 -7 0 -5 2 -16 7 -26 7
-16 3 -108 -10 -204 -6 -48 3 -55 24 -20 18 28 19 39 21 231 1 88 4 164 7 168
2 5 11 4 19 -3 11 -9 14 -51 14 -205 0 -183 -1 -195 -20 -206 -17 -11 -20 -24
-20 -81 0 -42 -6 -80 -15 -98 -9 -16 -19 -59 -22 -94 -3 -36 -12 -70 -19 -76
-8 -6 -14 -20 -14 -31 0 -11 -8 -33 -17 -49 -16 -26 -16 -31 -3 -39 8 -5 34
-10 57 -10 25 0 48 -7 58 -16 19 -19 114 -24 205 -11 79 11 97 -3 81 -67 -11
-44 -10 -49 10 -65 14 -11 20 -24 16 -34 -10 -28 -36 -19 -59 18 -11 20 -37
44 -57 55 -21 10 -43 26 -50 34 -9 11 -30 16 -64 16 -32 0 -57 6 -68 16 -9 8
-42 18 -73 21 -74 8 -106 -12 -106 -65 -1 -20 -6 -49 -13 -64 -18 -40 -128
-158 -147 -158 -10 0 -29 -9 -43 -20 -14 -11 -34 -20 -45 -20 -10 0 -27 -9
-36 -19 -10 -11 -30 -21 -45 -23 -22 -3 -26 -7 -24 -32 4 -47 -11 -56 -93 -56
-61 0 -78 -4 -94 -20 -17 -17 -33 -20 -124 -20 -74 0 -107 -4 -115 -13 -6 -8
-8 -17 -4 -20 3 -4 -41 -7 -98 -7 -57 0 -121 -3 -141 -6 -31 -5 -40 -2 -61 20
l-25 27 -218 5 c-174 5 -232 10 -283 25 -35 10 -86 19 -115 19 -28 1 -69 7
-91 15 -22 8 -65 18 -95 21 -30 4 -69 15 -86 25 -17 11 -41 19 -53 19 -11 0
-38 9 -58 20 -21 11 -48 20 -60 20 -13 0 -40 9 -60 20 -21 11 -43 20 -50 20
-7 0 -35 16 -63 35 -27 19 -60 37 -74 41 -14 3 -26 10 -26 16 0 5 -16 16 -35
24 -38 16 -124 95 -144 132 -9 18 -16 21 -26 12 -17 -14 -20 -5 -35 110 -8 59
-25 128 -46 180 -18 47 -38 119 -44 160 -6 41 -16 104 -22 140 -5 36 -8 142
-6 235 3 137 6 175 20 195 9 14 19 45 23 70 4 25 14 52 21 61 8 9 17 40 21 70
3 30 13 62 21 72 9 10 17 34 19 54 1 20 9 43 18 53 8 9 15 23 15 32 0 8 11 27
25 42 14 15 25 31 25 37 0 5 8 18 18 28 42 46 62 74 62 87 0 8 7 22 15 32 54
61 65 76 65 89 0 7 8 17 18 20 15 6 128 95 142 112 6 7 37 27 66 42 39 20 52
74 41 169 -6 57 -6 104 1 142 7 39 7 66 0 85 -13 35 6 93 24 75 6 -6 11 -26
10 -44z m988 -258 c0 -6 -18 -9 -45 -7 -64 6 -68 17 -7 17 29 0 52 -5 52 -10z
m-167 -7 c-7 -2 -21 -2 -30 0 -10 3 -4 5 12 5 17 0 24 -2 18 -5z m44 1 c-3 -3
-12 -4 -19 -1 -8 3 -5 6 6 6 11 1 17 -2 13 -5z m730 -94 c4 -15 14 -20 39 -20
27 0 34 -4 34 -20 0 -13 -7 -20 -19 -20 -30 0 -51 11 -51 26 0 8 -9 14 -21 14
-28 0 -61 19 -54 31 4 5 20 9 37 9 21 0 31 -6 35 -20z m123 -79 c0 -5 14 -14
30 -21 17 -7 30 -19 30 -26 0 -8 9 -14 21 -14 12 0 23 -8 26 -19 3 -11 13 -21
24 -24 10 -3 19 -13 19 -24 0 -10 16 -29 35 -43 37 -27 53 -56 38 -71 -13 -13
-63 28 -63 52 0 10 -5 19 -10 19 -6 0 -34 25 -63 55 -28 30 -57 55 -64 55 -6
0 -18 8 -25 18 -7 10 -21 21 -30 25 -18 6 -24 28 -12 40 8 8 44 -10 44 -22z
m-226 -97 c22 -9 10 -23 -14 -17 -11 3 -17 9 -14 14 6 11 8 11 28 3z m496
-441 c0 -23 5 -33 21 -38 13 -4 17 -11 12 -16 -13 -13 -43 -1 -43 16 0 8 -9
16 -19 20 -19 6 -35 31 -27 43 2 4 16 7 30 7 23 0 26 -4 26 -32z m198 -71 c3
-33 -1 -43 -18 -52 -12 -6 -24 -9 -28 -6 -3 3 0 6 7 6 9 0 11 11 6 40 -4 21
-4 44 0 50 13 22 30 3 33 -38z m36 -68 c10 -25 7 -114 -4 -114 -5 0 -14 9 -20
19 -17 33 -10 111 10 111 4 0 11 -7 14 -16z m40 -120 c10 -25 7 -154 -3 -154
-6 0 -13 5 -16 10 -9 15 -17 139 -10 150 9 15 22 12 29 -6z m-2764 -1223 c4
-22 5 -43 2 -46 -3 -3 -24 -5 -47 -5 -40 0 -42 -1 -68 -56 -27 -55 -29 -56
-64 -52 -34 4 -37 2 -56 -41 -11 -25 -25 -49 -31 -53 -11 -8 -86 -11 -86 -4 0
2 9 24 20 50 24 53 42 66 88 59 25 -4 32 -2 32 11 0 8 8 31 17 51 14 29 25 38
60 47 27 6 48 19 55 32 19 37 51 67 61 57 5 -5 13 -28 17 -50z m-592 -82 c-4
-13 -148 -21 -148 -9 0 5 26 11 58 13 31 2 65 4 75 5 10 1 17 -3 15 -9z m652
1 c0 -5 -2 -10 -4 -10 -3 0 -8 5 -11 10 -3 6 -1 10 4 10 6 0 11 -4 11 -10z
m-650 -370 c0 -5 -4 -10 -10 -10 -5 0 -10 5 -10 10 0 6 5 10 10 10 6 0 10 -4
10 -10z"/>
<path d="M1824 3516 c-3 -9 -12 -16 -19 -16 -8 0 -17 -5 -21 -12 -5 -8 -2 -9
12 -4 10 4 30 10 43 12 14 3 32 9 40 14 14 8 14 9 -1 10 -9 0 -23 3 -32 6 -10
4 -18 0 -22 -10z"/>
<path d="M1888 3483 c7 -3 16 -2 19 1 4 3 -2 6 -13 5 -11 0 -14 -3 -6 -6z"/>
<path d="M1710 3450 c0 -5 4 -10 9 -10 6 0 13 5 16 10 3 6 -1 10 -9 10 -9 0
-16 -4 -16 -10z"/>
<path d="M1650 3401 c0 -6 5 -13 10 -16 6 -3 10 1 10 9 0 9 -4 16 -10 16 -5 0
-10 -4 -10 -9z"/>
<path d="M1344 3345 c-3 -8 -3 -126 0 -262 3 -137 6 -262 6 -280 0 -18 5 -35
10 -38 17 -11 11 -66 -10 -92 -18 -23 -19 -35 -14 -106 4 -44 15 -101 24 -126
16 -44 17 -46 53 -43 28 3 37 0 37 -12 0 -8 10 -18 23 -22 34 -10 58 -41 59
-77 0 -18 7 -42 14 -54 16 -25 19 -73 5 -73 -5 0 -13 10 -17 23 -4 12 -15 28
-24 34 -10 7 -21 25 -25 40 -7 30 -71 92 -95 93 -20 0 -80 -54 -80 -72 0 -7 7
-22 15 -32 8 -11 15 -41 15 -67 0 -29 6 -51 15 -59 8 -7 18 -34 21 -61 10 -74
32 -80 43 -12 7 41 34 57 45 26 3 -10 13 -29 21 -43 31 -52 4 -120 -29 -75 -8
11 -20 16 -30 12 -22 -9 -20 -38 4 -44 32 -8 27 -51 -7 -59 -16 -4 -37 -13
-48 -20 -11 -8 -30 -14 -42 -14 -13 0 -32 -9 -43 -20 -11 -11 -28 -20 -38 -20
-10 0 -48 -28 -85 -61 -53 -49 -67 -68 -67 -90 0 -37 5 -36 37 2 30 35 95 79
118 79 8 0 32 9 52 20 21 11 45 20 53 20 8 0 29 7 45 16 17 9 55 18 86 21 46
5 57 3 62 -11 7 -17 -26 -36 -63 -36 -10 0 -31 -7 -47 -15 -15 -9 -39 -20 -53
-25 -92 -37 -175 -118 -191 -187 -5 -21 -6 -62 -3 -90 5 -44 12 -58 40 -83 19
-16 41 -30 48 -30 8 0 16 -7 20 -15 8 -21 66 -20 66 0 0 9 -7 18 -15 21 -25
10 -17 29 19 47 19 8 42 29 51 44 9 16 30 36 47 46 28 16 31 16 73 -3 54 -25
62 -25 70 -2 8 27 46 43 71 29 25 -14 37 -30 75 -105 31 -62 64 -95 91 -91 7
1 26 -3 41 -9 16 -7 40 -9 53 -6 18 5 47 -4 97 -29 110 -53 116 -54 129 -19 8
21 20 32 41 36 86 17 211 -14 239 -59 l16 -27 24 41 c15 27 34 45 56 53 44 16
115 118 83 118 -5 0 -14 -6 -20 -13 -24 -30 -172 -60 -236 -48 -84 16 -105 29
-191 117 -79 80 -84 87 -84 128 0 41 2 44 43 61 23 10 51 19 62 21 11 1 30 5
42 9 16 5 24 2 32 -14 17 -30 37 -26 50 11 6 17 10 32 9 33 -2 1 -18 7 -37 14
-47 15 -87 14 -105 -4 -21 -21 -53 -19 -66 5 -14 26 -35 25 -53 -1 -10 -13
-23 -19 -39 -17 -19 2 -24 10 -28 48 -5 45 -42 110 -62 110 -6 0 -8 9 -5 19 3
12 -4 28 -19 42 -22 21 -23 24 -7 41 14 16 15 24 3 74 -7 30 -17 57 -22 60 -4
3 -8 14 -8 25 0 10 -5 19 -12 19 -17 0 -73 64 -93 105 -21 46 -17 79 13 83 24
4 27 13 13 40 -5 9 -26 53 -47 96 -34 73 -36 82 -25 113 14 39 7 56 -21 47
-18 -5 -19 -2 -16 38 3 38 1 43 -18 43 -11 0 -27 5 -35 11 -8 6 -29 16 -47 22
-30 10 -33 9 -42 -13 -5 -14 -12 -25 -16 -25 -3 0 -4 7 0 15 7 20 -10 65 -26
65 -7 0 -28 15 -46 34 -30 31 -82 47 -82 25 0 -5 -5 -9 -10 -9 -7 0 -10 84 -7
258 1 143 1 264 -1 270 -5 17 -22 15 -28 -3z m86 -1129 c0 -2 -9 -6 -20 -9
-11 -3 -18 -1 -14 4 5 9 34 13 34 5z m437 -233 c-3 -10 -5 -4 -5 12 0 17 2 24
5 18 2 -7 2 -21 0 -30z m-272 -63 c0 -35 -21 -53 -31 -26 -9 23 5 68 19 63 7
-2 12 -19 12 -37z m484 -287 c10 -19 9 -23 -4 -23 -10 0 -15 9 -15 27 0 29 2
29 19 -4z"/>
<path d="M1510 3330 c0 -5 7 -10 15 -10 8 0 15 5 15 10 0 6 -7 10 -15 10 -8 0
-15 -4 -15 -10z"/>
<path d="M1207 3224 c-2 -15 -1 -38 3 -53 9 -27 11 -22 16 42 4 42 -11 51 -19
11z"/>
<path d="M1560 3224 c0 -9 7 -14 17 -12 25 5 28 28 4 28 -12 0 -21 -6 -21 -16z"/>
<path d="M2381 3210 c-6 -3 -28 -21 -50 -40 -36 -29 -41 -39 -41 -76 0 -23 7
-57 14 -76 8 -19 17 -75 19 -124 3 -74 7 -90 21 -92 10 -2 24 5 31 15 12 16
28 18 128 18 95 0 118 -3 134 -17 28 -26 41 -22 48 15 4 17 13 43 21 57 7 14
18 43 24 65 9 36 8 42 -11 58 -12 9 -29 17 -39 17 -22 0 -80 47 -80 64 0 27
-62 95 -98 108 -39 13 -106 18 -121 8z"/>
<path d="M1498 3183 c6 -2 18 -2 25 0 6 3 1 5 -13 5 -14 0 -19 -2 -12 -5z"/>
<path d="M1237 3107 c-6 -17 7 -344 14 -352 10 -9 18 113 16 239 -1 78 -6 121
-13 123 -6 2 -14 -2 -17 -10z"/>
<path d="M2998 2902 l-98 -3 0 -32 c0 -41 12 -59 33 -51 19 7 22 20 7 29 -22
14 2 23 36 13 29 -7 44 -6 68 6 17 8 44 19 61 24 44 13 9 18 -107 14z"/>
<path d="M3165 2900 c-3 -5 -1 -10 4 -10 6 0 11 5 11 10 0 6 -2 10 -4 10 -3 0
-8 -4 -11 -10z"/>
<path d="M3060 2730 c-13 -8 -12 -10 3 -10 9 0 17 5 17 10 0 12 -1 12 -20 0z"/>
<path d="M2988 2723 c7 -3 16 -2 19 1 4 3 -2 6 -13 5 -11 0 -14 -3 -6 -6z"/>
<path d="M2021 2568 c-25 -13 -55 -38 -69 -55 l-24 -33 23 -8 c29 -11 59 -4
59 13 0 19 62 26 154 17 116 -10 108 -28 -16 -36 -136 -9 -208 -30 -208 -59 0
-28 8 -38 45 -62 35 -22 47 -21 86 7 33 25 52 19 71 -19 14 -30 36 -38 74 -29
19 5 25 15 30 46 8 48 28 52 43 9 15 -44 14 -46 -14 -53 -29 -7 -34 -26 -6
-26 11 0 33 14 49 30 24 23 39 30 71 30 47 0 51 -6 75 -100 19 -72 32 -93 42
-66 3 9 -4 44 -16 77 -15 39 -22 79 -21 114 1 42 -3 59 -21 82 -13 15 -28 37
-33 47 -19 33 -95 65 -185 77 -159 20 -162 20 -209 -3z m334 -118 c4 -6 -7
-10 -27 -9 -27 0 -30 2 -13 9 27 12 33 12 40 0z"/>
<path d="M2840 2581 c-8 -5 -32 -12 -53 -15 -44 -8 -121 -47 -154 -78 -23 -21
-30 -62 -15 -84 4 -7 18 -14 32 -15 15 -3 26 -12 28 -24 6 -30 22 -45 49 -45
24 0 27 4 38 53 7 35 36 33 45 -2 7 -32 22 -36 45 -11 10 11 24 20 30 20 7 0
22 23 33 50 12 28 26 50 31 50 19 0 12 29 -9 40 -11 6 -17 16 -14 25 14 34
-45 59 -86 36z m80 -86 c0 -8 -6 -15 -14 -15 -17 0 -28 14 -19 24 12 12 33 6
33 -9z m-113 -11 c-3 -3 -12 -4 -19 -1 -8 3 -5 6 6 6 11 1 17 -2 13 -5z"/>
<path d="M2090 2280 c0 -5 7 -10 15 -10 8 0 15 5 15 10 0 6 -7 10 -15 10 -8 0
-15 -4 -15 -10z"/>
<path d="M2821 1960 c-17 -38 -31 -76 -31 -84 0 -8 -15 -49 -34 -90 l-35 -75
-138 0 c-192 1 -193 1 -193 -16 0 -16 36 -20 168 -15 67 2 101 -5 160 -33 25
-12 29 -39 8 -56 -8 -7 -17 -23 -20 -36 -4 -14 -17 -41 -31 -61 -25 -37 -34
-94 -15 -94 6 0 10 10 10 23 1 63 32 91 50 43 4 -13 9 -69 9 -124 l1 -100 -33
-26 c-17 -15 -39 -32 -46 -39 -8 -6 -24 -14 -35 -17 -12 -3 -22 -14 -24 -23
-3 -14 5 -17 47 -17 28 0 73 9 101 20 28 11 59 20 70 20 11 0 29 11 42 24 13
13 49 32 81 41 50 16 61 24 78 57 18 35 18 44 7 103 -10 59 -17 71 -67 124
-31 32 -74 70 -96 83 -50 32 -79 63 -70 77 9 16 61 13 75 -4 7 -8 18 -15 26
-15 7 0 19 -6 27 -14 8 -8 30 -21 50 -29 40 -17 116 -108 118 -140 1 -12 2
-26 4 -32 1 -5 3 -16 3 -23 1 -7 7 -10 12 -7 18 11 11 91 -10 118 -11 14 -20
29 -20 34 0 5 -8 16 -17 25 -10 9 -30 30 -45 47 -15 17 -34 31 -42 31 -8 0
-17 4 -21 9 -10 16 -94 70 -119 77 -34 8 -44 63 -16 84 15 11 21 28 22 65 2
35 8 54 20 63 18 13 25 57 9 66 -4 3 -22 -26 -40 -64z"/>
<path d="M2615 1979 c-16 -5 -60 -7 -96 -3 -45 4 -69 2 -74 -5 -4 -7 -20 -9
-41 -5 -29 5 -34 3 -34 -13 0 -16 12 -21 75 -32 42 -8 78 -18 81 -22 15 -25
88 5 122 50 33 45 28 49 -33 30z"/>
<path d="M1977 1924 c-4 -4 -7 -14 -7 -23 0 -11 3 -12 11 -4 6 6 10 16 7 23
-2 6 -7 8 -11 4z"/>
<path d="M2360 1615 c-7 -8 -9 -15 -4 -15 5 0 24 -13 43 -29 33 -28 36 -29
114 -23 65 4 88 10 119 31 56 39 58 54 6 46 -24 -4 -67 -14 -96 -21 -72 -19
-99 -18 -137 6 -29 18 -34 18 -45 5z"/>
<path d="M1541 1408 c17 -34 19 -34 19 -5 0 18 -5 27 -15 27 -13 0 -14 -4 -4
-22z"/>
<path d="M1380 1271 c0 -6 4 -12 9 -15 13 -8 42 4 35 15 -7 12 -44 12 -44 0z"/>
<path d="M1468 1252 c-36 -37 -22 -52 48 -52 58 0 70 13 54 55 -14 36 -66 34
-102 -3z"/>
<path d="M2441 1156 c-15 -18 1 -30 30 -21 16 5 18 10 8 21 -15 18 -23 18 -38
0z"/>
<path d="M1810 1151 c0 -17 16 -20 71 -14 44 6 49 8 29 14 -37 11 -100 10
-100 0z"/>
<path d="M2173 1108 c2 -9 27 -13 77 -13 50 0 75 4 78 13 3 9 -17 12 -78 12
-61 0 -81 -3 -77 -12z"/>
<path d="M2535 1100 c4 -6 11 -8 16 -5 14 9 11 15 -7 15 -8 0 -12 -5 -9 -10z"/>
<path d="M1105 780 c3 -5 8 -10 11 -10 2 0 4 5 4 10 0 6 -5 10 -11 10 -5 0 -7
-4 -4 -10z"/>
<path d="M483 744 c-4 -10 -8 -46 -8 -79 0 -57 1 -60 25 -60 24 0 25 1 22 65
-4 70 -25 110 -39 74z"/>
<path d="M1145 740 c3 -5 8 -10 11 -10 2 0 4 5 4 10 0 6 -5 10 -11 10 -5 0 -7
-4 -4 -10z"/>
<path d="M1185 700 c3 -5 8 -10 11 -10 2 0 4 5 4 10 0 6 -5 10 -11 10 -5 0 -7
-4 -4 -10z"/>
<path d="M3050 699 c0 -5 5 -7 10 -4 6 3 10 8 10 11 0 2 -4 4 -10 4 -5 0 -10
-5 -10 -11z"/>
<path d="M1225 660 c4 -6 11 -8 16 -5 14 9 11 15 -7 15 -8 0 -12 -5 -9 -10z"/>
<path d="M401 630 c-12 -17 -30 -30 -41 -30 -11 0 -25 -9 -32 -20 -10 -15 -24
-20 -58 -20 -25 -1 -63 -8 -85 -16 -22 -8 -73 -17 -112 -21 l-73 -6 0 -43 c0
-43 0 -43 31 -37 16 3 47 14 67 24 20 11 45 19 55 19 10 0 30 9 44 20 15 12
41 20 62 20 20 0 45 6 56 14 11 7 40 17 65 21 56 9 70 20 70 55 0 45 -23 55
-49 20z"/>
<path d="M2770 419 c0 -5 5 -7 10 -4 6 3 10 8 10 11 0 2 -4 4 -10 4 -5 0 -10
-5 -10 -11z"/>
<path d="M2725 380 c3 -5 8 -10 11 -10 2 0 4 5 4 10 0 6 -5 10 -11 10 -5 0 -7
-4 -4 -10z"/>
<path d="M2418 263 c6 -2 18 -2 25 0 6 3 1 5 -13 5 -14 0 -19 -2 -12 -5z"/>
<path d="M2485 260 c3 -5 12 -7 20 -3 21 7 19 13 -6 13 -11 0 -18 -4 -14 -10z"/>
</g>
</svg>
